#!OML:ASF F:\VICON\USERDATA\INSTALL\rory3\rory3.ASF
:FULLY-SPECIFIED
:DEGREES
49
root -10.9715 15.4456 -7.25442 10.792 28.0884 4.05297
lowerback 29.3552 2.27765 0.640822
upperback 7.56113 3.56361 2.88
thorax -7.79697 1.76473 1.59032
lowerneck -20.5291 0.221339 -3.74878
upperneck 8.52346 1.78198 -3.23775
head 5.89491 0.471211 -0.251178
rclavicle 4.13472e-014 -1.11319e-014
rhumerus -9.74391 -27.5671 -49.1315
rradius 66.0294
rwrist 28.9792
rhand -32.5852 -9.33054
rfingers 7.12502
rthumb -5.81372 -39.2308
lclavicle 4.13472e-014 -1.11319e-014
lhumerus -40.3611 34.696 58.0631
lradius 58.2075
lwrist 4.17848
lhand -31.3878 39.715
lfingers 7.12502
lthumb -4.65764 69.6438
rfemur -49.7353 -22.0551 28.0124
rtibia 78.8819
rfoot -29.1949 -4.91515
rtoes 5.20656
lfemur -62.0711 0.973948 -2.38808
ltibia 83.739
lfoot 5.91985 -11.3781
ltoes -24.7762
50
root -10.9756 15.4615 -7.22994 10.772 27.953 4.0376
lowerback 29.5031 2.22646 0.847002
upperback 7.42683 3.56165 2.87732
thorax -8.00795 1.75833 1.46279
lowerneck -20.4129 0.667551 -3.72728
upperneck 8.84484 2.42931 -3.57192
head 5.98602 0.750643 -0.291758
rclavicle 3.81667e-014 1.59028e-015
rhumerus -10.104 -27.5767 -49.0885
rradius 66.1601
rwrist 28.9733
rhand -32.7699 -9.20284
rfingers 7.12502
rthumb -5.99208 -39.0981
lclavicle 3.81667e-014 1.59028e-015
lhumerus -39.9715 34.1386 58.5177
lradius 58.7801
lwrist 4.75513
lhand -32.2265 39.9278
lfingers 7.12502
lthumb -5.46741 69.8373
rfemur -49.4504 -21.7424 27.9726
rtibia 78.6391
rfoot -29.0889 -4.89637
rtoes 5.67238
lfemur -62.5388 0.995402 -2.75748
ltibia 83.9879
lfoot 2.9198 -10.5577
ltoes -29.8615
51
root -10.9816 15.4846 -7.20444 10.6315 27.8121 3.99678
lowerback 29.8232 2.23177 0.996871
upperback 7.22878 3.62152 2.87816
thorax -8.37961 1.77911 1.34332
lowerneck -20.1884 0.996772 -3.64116
upperneck 9.1927 2.88357 -3.79809
head 6.06885 0.947077 -0.328701
rclavicle 5.00937e-014 -4.77083e-014
rhumerus -10.8291 -27.4792 -48.9201
rradius 66.4316
rwrist 28.9419
rhand -32.8042 -9.14211
rfingers 7.12502
rthumb -6.02523 -39.0364
lclavicle 5.00937e-014 -4.77083e-014
lhumerus -39.6811 33.569 58.9119
lradius 59.2798
lwrist 4.13571
lhand -32.0463 39.8549
lfingers 7.12502
lthumb -5.29348 69.7688
rfemur -48.9787 -21.381 27.903
rtibia 78.3676
rfoot -28.9866 -5.00869
rtoes 5.57157
lfemur -62.8333 1.06838 -3.21414
ltibia 84.0747
lfoot 2.3857 -9.92439
ltoes -28.4748
52
root -10.9865 15.5024 -7.18195 10.5979 27.7055 3.99267
lowerback 29.8392 2.27891 1.12734
upperback 7.19169 3.7274 2.94796
thorax -8.42907 1.82606 1.30729
lowerneck -20.1966 1.14179 -3.80502
upperneck 9.57377 3.16007 -3.91975
head 6.1949 1.05243 -0.310471
rclavicle 1.03368e-014 4.45278e-014
rhumerus -11.4541 -27.7533 -48.6818
rradius 66.832
rwrist 29.1055
rhand -32.5509 -9.25599
rfingers 7.12502
rthumb -5.78063 -39.1571
lclavicle 1.03368e-014 4.45278e-014
lhumerus -38.9894 33.23 59.6169
lradius 59.5713
lwrist 2.37831
lhand -30.85 38.6708
lfingers 7.12502
lthumb -4.13834 68.6104
rfemur -48.6359 -21.0138 27.8377
rtibia 78.1197
rfoot -28.9136 -5.20101
rtoes 5.56675
lfemur -63.3009 1.14745 -3.73183
ltibia 84.0996
lfoot 3.70713 -9.42956
ltoes -23.0464
53
root -10.993 15.5176 -7.16327 10.5924 27.6742 4.1282
lowerback 29.9246 2.27457 1.1597
upperback 7.20382 3.73749 2.98176
thorax -8.4571 1.83034 1.32056
lowerneck -20.1363 1.40584 -3.88031
upperneck 9.70911 3.56911 -4.11637
head 6.23382 1.22756 -0.31669
rclavicle -5.08889e-014 3.65764e-014
rhumerus -11.8981 -28.0812 -48.5712
rradius 67.2004
rwrist 29.2475
rhand -32.4608 -9.17169
rfingers 7.12502
rthumb -5.69364 -39.0752
lclavicle -5.08889e-014 3.65764e-014
lhumerus -38.2676 32.8586 60.1109
lradius 59.8436
lwrist 1.04253
lhand -29.7134 37.6698
lfingers 7.12502
lthumb -3.04065 67.6279
rfemur -48.3551 -20.8132 27.6613
rtibia 77.9023
rfoot -28.9446 -5.17655
rtoes 5.93037
lfemur -63.6529 1.0644 -4.30646
ltibia 84.0213
lfoot 3.77929 -8.96842
ltoes -21.593
54
root -11.0016 15.5408 -7.13325 10.5933 27.8055 4.3526
lowerback 30.074 2.19573 1.13123
upperback 7.13479 3.6319 2.94395
thorax -8.60424 1.77974 1.32709
lowerneck -19.914 1.80612 -3.6908
upperneck 9.8735 4.07666 -4.28152
head 6.26033 1.4641 -0.344815
rclavicle 1.01778e-013 -1.27222e-014
rhumerus -12.0735 -28.1887 -48.5257
rradius 67.1229
rwrist 29.2571
rhand -32.6779 -9.31537
rfingers 7.12502
rthumb -5.90325 -39.2131
lclavicle 1.01778e-013 -1.27222e-014
lhumerus -37.6633 31.7447 60.469
lradius 60.3059
lwrist 0.917192
lhand -29.8107 37.5326
lfingers 7.12502
lthumb -3.13468 67.4893
rfemur -47.9294 -20.7663 27.3887
rtibia 77.6609
rfoot -28.9782 -5.15198
rtoes 6.04942
lfemur -63.9108 0.890891 -5.01814
ltibia 83.7993
lfoot 2.46289 -8.76151
ltoes -24.3294
55
root -11.0077 15.5671 -7.10791 10.6127 27.9445 4.40469
lowerback 30.1162 2.09358 1.22234
upperback 7.07291 3.53706 2.97746
thorax -8.6899 1.73323 1.34467
lowerneck -19.6193 2.17428 -3.5255
upperneck 9.91763 4.55741 -4.56759
head 6.24109 1.68212 -0.412423
rclavicle 3.26007e-014 -1.43125e-014
rhumerus -12.1714 -28.199 -48.4632
rradius 67.0069
rwrist 29.188
rhand -32.8555 -9.65209
rfingers 7.12502
rthumb -6.07471 -39.545
lclavicle 3.26007e-014 -1.43125e-014
lhumerus -37.0192 30.8754 61.0313
lradius 60.9117
lwrist 0.849378
lhand -30.5869 38.2181
lfingers 7.12502
lthumb -3.88418 68.1625
rfemur -47.6051 -20.6543 27.3144
rtibia 77.3802
rfoot -29.0151 -5.23194
rtoes 6.00043
lfemur -64.3157 0.788399 -5.63949
ltibia 83.4657
lfoot 1.95294 -8.74947
ltoes -24.9921
56
root -11.0095 15.5833 -7.08992 10.7328 28.0361 4.5703
lowerback 29.9499 2.0206 1.18542
upperback 7.184 3.43937 3.07479
thorax -8.48963 1.69215 1.51697
lowerneck -19.565 2.43721 -3.65129
upperneck 9.77717 4.96474 -4.76794
head 6.19349 1.86447 -0.413813
rclavicle -4.37326e-014 -1.11319e-014
rhumerus -12.2294 -28.3396 -48.4458
rradius 67.2791
rwrist 28.6741
rhand -32.6729 -9.67418
rfingers 7.12502
rthumb -5.8984 -39.5721
lclavicle -4.37326e-014 -1.11319e-014
lhumerus -35.9818 30.4749 61.9298
lradius 61.4104
lwrist 0.578742
lhand -31.1953 38.9265
lfingers 7.12502
lthumb -4.4717 68.8593
rfemur -47.4566 -20.6098 27.1334
rtibia 77.175
rfoot -28.9107 -5.34887
rtoes 5.61036
lfemur -64.7874 0.654604 -6.44231
ltibia 83.0734
lfoot 2.06996 -8.79424
ltoes -24.6946
57
root -11.0174 15.5969 -7.06831 10.859 28.1294 4.54124
lowerback 29.6582 2.10189 1.42302
upperback 7.09469 3.60325 3.0617
thorax -8.43952 1.76506 1.3129
lowerneck -18.8279 2.56653 -3.24124
upperneck 9.59288 5.00873 -4.96357
head 6.03055 1.90417 -0.545462
rclavicle 1.11319e-014 3.18055e-015
rhumerus -13.2594 -28.8353 -48.1227
rradius 67.6417
rwrist 28.2309
rhand -32.5739 -9.62371
rfingers 7.12502
rthumb -5.8028 -39.5243
lclavicle 1.11319e-014 3.18055e-015
lhumerus -34.7295 29.5668 62.7243
lradius 61.5532
lwrist -0.240332
lhand -31.1814 39.7434
lfingers 7.12502
lthumb -4.45834 69.6764
rfemur -47.3872 -20.3862 27.2071
rtibia 76.9363
rfoot -28.8482 -5.53434
rtoes 5.10291
lfemur -65.3601 0.632093 -7.00651
ltibia 82.6264
lfoot 2.30097 -8.94001
ltoes -24.5871
58
root -11.0233 15.6136 -7.03904 10.8466 28.1662 4.58459
lowerback 29.738 2.08619 1.45335
upperback 7.04842 3.60254 3.11891
thorax -8.53294 1.76338 1.35689
lowerneck -18.8436 2.70838 -3.43458
upperneck 9.84705 5.24694 -4.84367
head 6.10859 2.01267 -0.4496
rclavicle -6.36111e-015 -3.02153e-014
rhumerus -13.9197 -29.0315 -48.0591
rradius 68.0083
rwrist 28.2087
rhand -32.6686 -9.5214
rfingers 7.12502
rthumb -5.89425 -39.4194
lclavicle -6.36111e-015 -3.02153e-014
lhumerus -33.6556 29.1678 63.4324
lradius 61.6433
lwrist -1.00801
lhand -31.0128 40.0687
lfingers 7.12502
lthumb -4.29554 70.0051
rfemur -47.065 -20.1192 27.1203
rtibia 76.6889
rfoot -28.8572 -5.57413
rtoes 5.44646
lfemur -65.6062 0.645395 -7.65743
ltibia 82.1063
lfoot 3.49459 -8.84212
ltoes -20.8163
59
root -11.0236 15.6323 -7.00714 10.7354 28.1639 4.65654
lowerback 29.9366 2.05185 1.42308
upperback 7.07465 3.56751 3.21445
thorax -8.60674 1.74775 1.4893
lowerneck -19.0383 2.85869 -3.58676
upperneck 10.1541 5.53558 -4.94945
head 6.2419 2.123 -0.423569
rclavicle -3.33958e-014 -6.36111e-015
rhumerus -14.4179 -29.0045 -47.9528
rradius 68.3339
rwrist 28.1311
rhand -33.0398 -9.37273
rfingers 7.12502
rthumb -6.25267 -39.2604
lclavicle -3.33958e-014 -6.36111e-015
lhumerus -32.5608 28.5435 64.4216
lradius 62.0778
lwrist -0.789031
lhand -31.5282 40.5042
lfingers 7.12502
lthumb -4.79314 70.43
rfemur -46.5534 -19.9073 26.9339
rtibia 76.4235
rfoot -28.8879 -5.76663
rtoes 5.08013
lfemur -65.645 0.607576 -8.38768
ltibia 81.4971
lfoot 3.31627 -8.78123
ltoes -20.401
60
root -11.0239 15.6479 -6.97992 10.7685 28.1646 4.66635
lowerback 29.9224 1.99633 1.48738
upperback 7.0588 3.51934 3.24188
thorax -8.6149 1.72413 1.50077
lowerneck -18.9033 3.06923 -3.4368
upperneck 10.183 5.80555 -5.14815
head 6.24271 2.2444 -0.482986
rclavicle 4.77083e-014 -3.97569e-014
rhumerus -14.7413 -28.9958 -47.944
rradius 68.4204
rwrist 28.0003
rhand -33.1195 -9.28963
rfingers 7.12502
rthumb -6.32961 -39.1751
lclavicle 4.77083e-014 -3.97569e-014
lhumerus -31.5744 28.2601 64.8242
lradius 62.0629
lwrist -2.01024
lhand -30.9888 38.5466
lfingers 7.12502
lthumb -4.27229 68.4835
rfemur -46.2871 -19.6306 26.8913
rtibia 76.1935
rfoot -28.9311 -6.00834
rtoes 4.75415
lfemur -65.8648 0.671867 -9.08868
ltibia 80.7818
lfoot 3.01309 -8.79179
ltoes -21.9104
61
root -11.0273 15.6592 -6.9568 10.8647 28.2055 4.58761
lowerback 29.9113 1.96829 1.6782
upperback 6.92456 3.54192 3.23595
thorax -8.75134 1.72856 1.37448
lowerneck -18.4528 3.26048 -3.02577
upperneck 10.0667 5.97184 -5.44419
head 6.15555 2.32936 -0.631389
rclavicle -3.65764e-014 3.18055e-015
rhumerus -15.3163 -29.1104 -47.8501
rradius 68.5574
rwrist 27.7702
rhand -32.8881 -9.55264
rfingers 7.12502
rthumb -6.10618 -39.4446
lclavicle -3.65764e-014 3.18055e-015
lhumerus -30.5347 26.9948 65.4894
lradius 62.5204
lwrist -1.77662
lhand -31.6315 40.2453
lfingers 7.12502
lthumb -4.89291 70.1688
rfemur -46.228 -19.3323 27.0114
rtibia 75.9864
rfoot -28.905 -6.2649
rtoes 4.75544
lfemur -66.2334 0.731594 -9.70567
ltibia 80.0314
lfoot 2.92087 -8.90764
ltoes -24.2058
